<svg id="Capa_1" enable-background="new 0 0 512 512" height="512" viewBox="0 0 512 512" width="512" xmlns="http://www.w3.org/2000/svg"><g><path d="m482 198.864h-326l100 283.136h226z" fill="#4175df"/><path d="m30 198.864h226v283.136h-226z" fill="#4086f4"/><path d="m192 156.75 64 86.25c0 35.346 28.654 64 64 64s64-28.654 64-64l64-86.25z" fill="#609af6"/><path d="m384 156.75v86.25c0 35.346 28.654 64 64 64s64-28.654 64-64v-26.25z" fill="#23346d"/><path d="m64 156.75 64 86.25c0 35.346 28.654 64 64 64s64-28.654 64-64v-86.25z" fill="#324492"/><path d="m0 216.75v26.25c0 35.346 28.654 64 64 64s64-28.654 64-64v-86.25z" fill="#80aef8"/><path d="m65.24 30-65.24 186.75h128l64-93.375-31.38-93.375z" fill="#9fc2f9"/><path d="m512 216.75-65.24-186.75h-95.38l-31.38 93.375 64 93.375z" fill="#324492"/><path d="m351.38 30h-95.38l-64 93.375 64 93.375h128z" fill="#80aef8"/><path d="m160.62 30-32.62 186.75h128v-186.75z" fill="#4254b6"/></g></svg>